<svg width="12" height="9" viewBox="0 0 12 9" xmlns="http://www.w3.org/2000/svg">
<path d="M4.00002 6.77956L1.68668 4.46623C1.56203 4.34158 1.39297 4.27155 1.21668 4.27155C1.0404 4.27155 0.871334 4.34158 0.746682 4.46623C0.622031 4.59088 0.552002 4.75995 0.552002 4.93623C0.552002 5.02352 0.569195 5.10995 0.602598 5.19059C0.636001 5.27123 0.684961 5.34451 0.746682 5.40623L3.53335 8.1929C3.79335 8.4529 4.21335 8.4529 4.47335 8.1929L11.5267 1.13956C11.6513 1.01491 11.7214 0.845848 11.7214 0.669563C11.7214 0.493279 11.6513 0.324215 11.5267 0.199563C11.402 0.0749116 11.233 0.00488281 11.0567 0.00488281C10.8804 0.00488281 10.7113 0.0749116 10.5867 0.199563L4.00002 6.77956Z"/>
</svg>
